<svg width="656" height="132" viewBox="0 0 656 132" fill="none" xmlns="http://www.w3.org/2000/svg">
<path fill-rule="evenodd" clip-rule="evenodd" d="M2.62012 105C1.51555 105 0.620117 104.105 0.620117 103V101.18C0.620117 100.102 1.47409 99.2183 2.55119 99.1812C8.58461 98.9731 11.9065 98.1012 13.7024 96.8948C15.257 95.8505 15.8801 94.4025 15.8801 91.94V16.34C15.8801 13.9606 15.2646 12.4991 13.6937 11.4318C11.8956 10.2102 8.57128 9.30639 2.55119 9.0988C1.47409 9.06166 0.620117 8.17773 0.620117 7.09999V5.41999C0.620117 4.31542 1.51555 3.41999 2.62012 3.41999H83.8201C84.9143 3.41999 85.8054 4.29926 85.8199 5.39333L86.2399 36.8933C86.2533 37.8987 85.5183 38.7577 84.523 38.8999L82.563 39.1799C81.6551 39.3096 80.7754 38.8052 80.4286 37.9562C76.3668 28.0118 72.8488 21.0714 68.4454 16.5861C64.1756 12.237 58.9481 10.08 51.0601 10.08H36.2601V49.06H41.8201C47.3996 49.06 51.2927 48.0159 54.2462 45.51C57.2443 42.9661 59.5917 38.6504 61.442 31.3863C61.6677 30.5002 62.4657 29.88 63.3801 29.88H65.2001C66.3047 29.88 67.2001 30.7754 67.2001 31.88V72.9C67.2001 74.0046 66.3047 74.9 65.2001 74.9H63.3801C62.4657 74.9 61.6677 74.2798 61.442 73.3937C59.5917 66.1296 57.2443 61.8139 54.2462 59.27C51.2927 56.764 47.3996 55.72 41.8201 55.72H36.2601V98.34H50.7801C60.2233 98.34 66.4366 96.0971 71.3418 91.5115C76.3632 86.8173 80.2203 79.4894 84.4823 68.7993C84.8049 67.9903 85.6139 67.483 86.4826 67.5451L88.4426 67.6851C89.5054 67.761 90.3221 68.6568 90.2997 69.722L89.5997 103.042C89.5768 104.13 88.6883 105 87.6001 105H2.62012ZM63.2001 72.2081C59.4051 57.9246 53.2575 53.72 41.8201 53.72H34.2601V100.34H50.7801C70.3498 100.34 77.7772 90.989 86.3005 69.6392C86.3007 69.6388 86.3009 69.6384 86.301 69.638C86.314 69.6054 86.3271 69.5727 86.3401 69.54L88.3001 69.68L87.6001 103H2.62012V101.18C3.72516 101.142 4.75531 101.082 5.71504 101C15.3336 100.179 17.8801 97.1592 17.8801 91.94V16.34C17.8801 11.4925 15.5723 8.42841 7.05214 7.41999C5.7294 7.26344 4.25693 7.15643 2.62012 7.09999V5.41999H83.8201L84.2401 36.92L82.2801 37.2C74.1601 17.32 67.7201 8.07999 51.0601 8.07999H34.2601V51.06H41.8201C53.2575 51.06 59.4051 46.8553 63.2001 32.5719C63.2607 32.3439 63.3207 32.1132 63.3801 31.88H65.2001V72.9H63.3801C63.3207 72.6668 63.2607 72.4361 63.2001 72.2081ZM126.686 40.46C120.23 41.7779 120.981 44.0958 124.461 49.38L134.821 64.64L142.801 54.28C148.84 46.5336 148.107 42.2348 141.18 40.46C140.721 40.3423 140.234 40.2357 139.721 40.14V38.46H166.741V40.14C166.285 40.2199 165.842 40.3044 165.411 40.3943C165.308 40.4159 165.205 40.4378 165.103 40.46C158.17 41.9672 154.185 44.9742 147.421 53.3L136.501 66.88L153.161 89.84C158.895 97.7404 161.149 99.8418 166.048 101C166.531 101.114 167.04 101.219 167.581 101.32V103H134.121V101.32C134.901 101.222 135.613 101.116 136.259 101C143.026 99.781 142.587 97.4355 138.881 91.94L127.541 75.28L117.881 87.6C111.747 95.4307 112.791 99.368 120.56 101C121.124 101.119 121.725 101.225 122.361 101.32V103H95.0606V101.32C95.5882 101.223 96.0992 101.117 96.5963 101C102.563 99.5946 106.53 96.5925 113.121 88.58L125.861 73.04L110.181 51.48C104.396 43.4324 102.113 41.4835 96.9407 40.46C96.3543 40.3439 95.7307 40.2398 95.0606 40.14V38.46H128.521V40.14C127.853 40.2401 127.243 40.3463 126.686 40.46ZM123.334 72.9668L108.557 52.6473C105.323 48.1481 103.351 45.8072 101.484 44.4253C99.7267 43.1255 97.9472 42.592 94.766 42.1182C93.786 41.9722 93.0606 41.1308 93.0606 40.14V38.46C93.0606 37.3554 93.956 36.46 95.0606 36.46H128.521C129.625 36.46 130.521 37.3554 130.521 38.46V40.14C130.521 41.13 129.796 41.971 128.817 42.1179C126.767 42.4254 125.443 42.7703 124.625 43.1348C124.228 43.3118 124.022 43.463 123.921 43.5577C123.874 43.6023 123.853 43.6315 123.846 43.6432C123.842 43.6494 123.84 43.6537 123.838 43.6571C123.837 43.6595 123.837 43.6614 123.836 43.6632C123.829 43.6871 123.759 43.9912 124.152 44.8914C124.528 45.7538 125.183 46.8407 126.123 48.2683C126.126 48.2722 126.128 48.2761 126.131 48.28L134.923 61.2298L141.223 53.0502C142.774 51.062 143.786 49.4017 144.35 48.0383C144.915 46.6696 144.968 45.7514 144.826 45.1473C144.584 44.1177 143.399 42.8602 139.354 42.1061C138.407 41.9296 137.721 41.1032 137.721 40.14V38.46C137.721 37.3554 138.616 36.46 139.721 36.46H166.741C167.332 36.46 167.864 36.717 168.23 37.1254L191.691 36.1816C192.235 36.1597 192.764 36.3605 193.157 36.7376C193.549 37.1148 193.771 37.6356 193.771 38.18V42.882C199.148 38.4198 205.45 35.34 213.051 35.34C221.805 35.34 228.765 39.0696 233.48 45.3434C238.15 51.5577 240.531 60.1391 240.531 69.82C240.531 79.857 237.585 88.9113 232.106 95.4945C226.598 102.111 218.614 106.12 208.851 106.12C202.866 106.12 198.384 105.132 194.051 103.246V122.74C194.051 123.648 194.195 124.1 194.347 124.352C194.474 124.564 194.727 124.837 195.431 125.109C196.176 125.397 197.294 125.629 198.974 125.789C200.636 125.947 202.732 126.025 205.377 126.06C206.472 126.075 207.351 126.966 207.351 128.06V129.74C207.351 130.845 206.456 131.74 205.351 131.74H167.411C166.306 131.74 165.411 130.845 165.411 129.74V128.06C165.411 126.969 166.286 126.079 167.377 126.06C169.388 126.026 170.937 125.948 172.138 125.796C173.357 125.641 174.072 125.426 174.498 125.203C174.853 125.018 174.998 124.835 175.103 124.592C175.242 124.269 175.351 123.722 175.351 122.74V47.84C175.351 46.0401 174.94 45.0414 174.113 44.3703C173.158 43.5948 171.237 42.9074 167.376 42.8397C166.863 42.8307 166.398 42.6293 166.049 42.305C162.78 42.9648 160.323 43.914 157.946 45.5368C155.271 47.3629 152.584 50.1168 148.975 54.558C148.975 54.559 148.974 54.5601 148.973 54.5612L139.017 66.9423L154.779 88.6652C154.779 88.6653 154.779 88.6651 154.779 88.6652C157.944 93.0261 159.899 95.3987 161.722 96.8507C163.43 98.2113 165.102 98.8245 167.946 99.3537C168.894 99.53 169.581 100.357 169.581 101.32V103C169.581 104.105 168.685 105 167.581 105H134.121C133.016 105 132.121 104.105 132.121 103V101.32C132.121 100.311 132.872 99.4605 133.873 99.3354C136.066 99.0613 137.54 98.7351 138.489 98.3651C138.953 98.184 139.222 98.0182 139.371 97.897C139.506 97.7869 139.524 97.7289 139.525 97.7286C139.526 97.7252 139.634 97.4528 139.261 96.552C138.9 95.6783 138.23 94.5525 137.225 93.0619C137.224 93.0607 137.223 93.0595 137.222 93.0583L127.427 78.6668L119.455 88.8333C117.866 90.8614 116.867 92.5087 116.345 93.8263C115.825 95.1425 115.854 95.9394 116.024 96.4256C116.185 96.8874 116.601 97.4356 117.682 97.9826C118.783 98.5401 120.408 99.0064 122.656 99.3419C123.636 99.4881 124.361 100.329 124.361 101.32V103C124.361 104.105 123.465 105 122.361 105H95.0606C93.956 105 93.0606 104.105 93.0606 103V101.32C93.0606 100.355 93.7499 99.5273 94.6993 99.3529C97.9046 98.7642 100.351 97.8415 102.836 96.096C105.376 94.3117 108.038 91.6102 111.576 87.31C111.576 87.3098 111.575 87.3101 111.576 87.31L123.334 72.9668ZM170.398 41.0415C175.898 41.7484 177.351 44.2232 177.351 47.84V122.74C177.351 125.911 176.379 127.214 172.687 127.74C171.327 127.934 169.597 128.022 167.411 128.06V129.74H205.351V128.061C202.486 128.023 200.2 127.934 198.388 127.74C193.471 127.214 192.051 125.911 192.051 122.74V100.06C192.721 100.413 193.385 100.745 194.051 101.053C198.395 103.067 202.781 104.12 208.851 104.12C227.191 104.12 238.531 89.14 238.531 69.82C238.531 51.06 229.291 37.34 213.051 37.34C205.461 37.34 199.198 40.6574 193.771 45.5232C193.092 46.1324 192.425 46.7658 191.771 47.42V38.18L167.411 39.16V40.84C167.434 40.8404 167.456 40.8408 167.479 40.8412C167.866 40.8488 168.239 40.8623 168.598 40.8816C169.242 40.9163 169.84 40.9698 170.398 41.0415ZM199.14 97.3835C201.189 98.8029 203.639 99.46 206.471 99.46C208.822 99.46 210.799 98.8851 212.47 97.8035C214.151 96.7152 215.631 95.0435 216.862 92.6922C219.352 87.9365 220.711 80.6206 220.711 70.66C220.711 63.3055 219.343 56.7807 216.781 52.1718C214.253 47.6248 210.673 45.08 206.051 45.08C201.686 45.08 197.975 47.014 194.051 50.9016V90.4437C195.394 93.8119 197.155 96.0084 199.14 97.3835ZM192.051 90.82C194.991 98.52 200.171 101.46 206.471 101.46C217.251 101.46 222.711 90.82 222.711 70.66C222.711 55.54 217.111 43.08 206.051 43.08C200.731 43.08 196.391 45.6 192.051 50.08V90.82ZM314.997 70.38C314.997 91.5046 299.261 106.12 280.377 106.12C270.521 106.12 261.808 102.656 255.554 96.4581C249.295 90.2553 245.617 81.4321 245.617 70.94C245.617 49.9443 261.363 35.34 280.377 35.34C299.939 35.34 314.997 49.3728 314.997 70.38ZM270.128 93.2317C272.699 97.5777 276.306 99.46 280.937 99.46C283.231 99.46 285.134 98.9669 286.723 98.0068C288.313 97.0464 289.718 95.5414 290.893 93.3159C293.284 88.7894 294.617 81.4937 294.617 70.66C294.617 59.8638 293.047 52.6295 290.413 48.1546C287.882 43.854 284.316 42 279.677 42C277.337 42 275.403 42.4888 273.793 43.4409C272.185 44.3918 270.772 45.8806 269.592 48.0841C267.19 52.5702 265.857 59.8241 265.857 70.66C265.857 81.4493 267.459 88.7199 270.128 93.2317ZM320.452 105C319.347 105 318.452 104.105 318.452 103V101.32C318.452 100.229 319.326 99.3394 320.417 99.3203C322.386 99.2858 323.913 99.1999 325.103 99.0385C326.307 98.8751 327.035 98.65 327.479 98.4149C327.862 98.2118 328.026 98.0089 328.137 97.762C328.279 97.4487 328.392 96.9249 328.392 96V47.84C328.392 46.0401 327.981 45.0414 327.154 44.3703C326.199 43.5948 324.278 42.9074 320.417 42.8397C319.326 42.8205 318.452 41.9309 318.452 40.84V39.16C318.452 38.0867 319.299 37.2048 320.371 37.1616L344.731 36.1816C345.275 36.1597 345.805 36.3605 346.197 36.7376C346.59 37.1148 346.812 37.6356 346.812 38.18V45.5186C351.475 39.4494 357.341 35.62 363.712 35.62C367.987 35.62 371.341 36.9527 373.627 39.2817C373.936 39.5965 374.221 39.9258 374.484 40.2676C374.74 40.0108 375.068 39.8218 375.44 39.7337L386.921 37.0179V20.82C386.921 19.9779 387.448 19.2259 388.24 18.9394L402.94 13.6194C403.553 13.3975 404.236 13.4883 404.769 13.8627C405.303 14.2371 405.621 14.8481 405.621 15.5V37.02H423.501C424.605 37.02 425.501 37.9154 425.501 39.02V43.36C425.501 44.4646 424.605 45.36 423.501 45.36H405.621V87.04C405.621 91.1496 406.223 93.5198 407.161 94.8448C407.971 95.9902 409.263 96.66 411.741 96.66C414.732 96.66 418.259 94.6234 421.751 88.3119C422.021 87.8226 422.484 87.469 423.028 87.3367C423.571 87.2045 424.145 87.3057 424.61 87.6159L426.29 88.7359C427.125 89.2928 427.418 90.3827 426.975 91.2834C424.643 96.0199 421.803 99.8125 418.265 102.422C414.698 105.053 410.531 106.4 405.721 106.4C399.925 106.4 395.103 104.871 391.762 101.283C388.447 97.7226 386.921 92.4846 386.921 85.78V45.5H376.718C376.849 46.2689 376.912 47.0526 376.912 47.84C376.912 50.9414 375.887 53.7249 373.993 55.7508C372.09 57.7869 369.415 58.94 366.372 58.94C360.109 58.94 355.552 54.4258 355.552 48.26C355.552 47.7836 355.59 47.2785 355.656 46.77C352.667 48.173 350.054 51.1688 347.092 56.0914V96C347.092 96.8607 347.232 97.2991 347.378 97.5463C347.503 97.7579 347.743 98.0189 348.379 98.2828C349.831 98.8858 352.485 99.1784 357.331 99.3209C358.412 99.3527 359.272 100.238 359.272 101.32V103C359.272 104.105 358.376 105 357.272 105H320.452ZM345.092 55.54C345.447 54.9401 345.8 54.3617 346.152 53.805C346.273 53.6132 346.394 53.424 346.515 53.2373C346.664 53.0092 346.812 52.785 346.96 52.5647C349.78 48.3681 352.612 45.592 356.131 44.43C356.854 44.1914 357.605 44.0208 358.392 43.92C358.176 44.4951 357.961 45.2548 357.802 46.0474C357.651 46.7983 357.552 47.5789 357.552 48.26C357.552 53.3 361.192 56.94 366.372 56.94C371.412 56.94 374.912 53.16 374.912 47.84C374.912 46.8607 374.799 45.904 374.57 44.9932C374.441 44.4795 374.274 43.9803 374.07 43.5C374.016 43.3733 373.96 43.2479 373.901 43.1239C372.365 39.9046 369.046 37.62 363.712 37.62C357.497 37.62 351.494 41.8627 346.812 48.9632C346.276 49.7753 345.758 50.6247 345.259 51.5095C345.108 51.7765 344.959 52.0467 344.812 52.32V38.18L320.452 39.16V40.84C320.474 40.8404 320.497 40.8408 320.519 40.8412C321.6 40.8622 322.57 40.9298 323.439 41.0415C328.938 41.7484 330.392 44.2232 330.392 47.84V96C330.392 99.1106 329.317 100.455 325.517 101C324.186 101.191 322.522 101.284 320.452 101.32V103H357.272V101.32C355.064 101.255 353.226 101.16 351.704 101C346.661 100.47 345.092 99.2261 345.092 96V55.54ZM388.921 43.5V85.78C388.921 98.66 394.801 104.4 405.721 104.4C414.541 104.4 420.701 99.5 425.181 90.4L423.501 89.28C423.165 89.887 422.825 90.4618 422.483 91.0052C419.112 96.3527 415.426 98.66 411.741 98.66C406.001 98.66 403.621 95.44 403.621 87.04V43.36H423.501V39.02H403.621V15.5L388.921 20.82V38.6L375.901 41.68V43.5H388.921ZM514.732 90.3727L514.727 90.3587L506.795 67.62H476.542L472.285 78.5126C472.284 78.5153 472.283 78.518 472.282 78.5206C470.727 82.5969 469.749 85.8458 469.318 88.4537C468.885 91.0706 469.032 92.8705 469.544 94.1579C470.502 96.5645 473.189 98.1562 479.561 99.2066C480.527 99.3659 481.236 100.201 481.236 101.18V103C481.236 104.105 480.34 105 479.236 105H446.476C445.371 105 444.476 104.105 444.476 103V101.18C444.476 100.278 445.08 99.4878 445.95 99.2505C450.257 98.0758 453.465 96.2631 456.316 93.0318C459.23 89.7289 461.858 84.8475 464.772 77.3551L464.776 77.3449L494.596 1.88496C494.898 1.12155 495.635 0.619997 496.456 0.619997H502.336C503.174 0.619997 503.923 1.14233 504.213 1.92859L535.573 87.0486L535.573 87.0499C537.334 91.8395 538.59 94.3354 540.457 95.9332C542.299 97.5101 545.01 98.436 550.359 99.2001C550.489 99.2187 550.615 99.2497 550.736 99.2917C552.15 99.2466 553.302 99.1661 554.243 99.0385C555.448 98.8751 556.175 98.65 556.619 98.4149C557.003 98.2118 557.167 98.0089 557.278 97.762C557.419 97.4487 557.532 96.9249 557.532 96V47.84C557.532 46.0401 557.121 45.0414 556.294 44.3703C555.339 43.5948 553.419 42.9074 549.557 42.8397C548.467 42.8205 547.592 41.9309 547.592 40.84V39.16C547.592 38.0867 548.44 37.2048 549.512 37.1616L573.872 36.1816C574.416 36.1597 574.945 36.3605 575.338 36.7376C575.731 37.1148 575.952 37.6356 575.952 38.18V47.1719C582.051 39.9288 589.716 35.76 598.172 35.76C604.118 35.76 609.031 37.5801 612.425 41.4018C615.785 45.1844 617.392 50.6315 617.392 57.36V96C617.392 96.939 617.5 97.469 617.638 97.7864C617.744 98.0309 617.897 98.224 618.262 98.4195C618.692 98.6499 619.409 98.8747 620.621 99.0383C621.818 99.1998 623.362 99.2857 625.367 99.3203C626.458 99.3391 627.332 100.229 627.332 101.32V103C627.332 104.105 626.437 105 625.332 105H592.292C591.188 105 590.292 104.105 590.292 103V101.32C590.292 100.232 591.162 99.3441 592.249 99.3205C593.825 99.2862 595.047 99.2013 596.001 99.0463C596.963 98.8898 597.529 98.68 597.868 98.4737C598.157 98.2979 598.319 98.1052 598.439 97.8163C598.581 97.4726 598.692 96.9188 598.692 96V60.02C598.692 55.085 597.954 51.8321 596.54 49.836C595.242 48.0032 593.125 46.9 589.352 46.9C584.545 46.9 579.851 50.5445 576.232 57.1637V96C576.232 97.8046 576.637 98.2257 577.049 98.48C577.38 98.6836 577.932 98.8916 578.871 99.0472C579.803 99.2015 580.997 99.2863 582.537 99.3205C583.624 99.3447 584.492 100.233 584.492 101.32V103C584.492 104.105 583.597 105 582.492 105H504.156C503.051 105 502.156 104.105 502.156 103V101.18C502.156 100.116 502.989 99.2387 504.051 99.1828C507.325 99.0105 509.796 98.7042 511.628 98.2518C513.48 97.7944 514.478 97.2345 515.009 96.7033C515.467 96.2453 515.722 95.6671 515.721 94.706C515.719 93.6614 515.408 92.2648 514.732 90.3727ZM582.492 103V101.32C580.858 101.284 579.516 101.191 578.425 101C575.308 100.455 574.232 99.1106 574.232 96V56.66C574.576 56.0113 574.932 55.3834 575.3 54.7778C575.392 54.6271 575.484 54.4778 575.577 54.3299C576.328 53.1385 577.126 52.0386 577.967 51.0429C581.219 47.1923 585.112 44.9 589.352 44.9C597.752 44.9 600.692 49.94 600.692 60.02V96C600.692 99.1106 599.617 100.455 596.443 101C595.332 101.191 593.963 101.284 592.292 101.32V103H625.332V101.32C623.226 101.284 621.544 101.191 620.207 101C616.391 100.455 615.392 99.1106 615.392 96V57.36C615.392 44.48 609.232 37.76 598.172 37.76C589.948 37.76 582.369 42.0651 576.38 49.8262C576.237 50.0122 576.094 50.2002 575.952 50.3901C575.263 51.3138 574.596 52.2843 573.952 53.3V38.18L549.592 39.16V40.84C549.615 40.8404 549.638 40.8408 549.66 40.8412C550.741 40.8622 551.711 40.9298 552.579 41.0415C558.079 41.7484 559.532 44.2232 559.532 47.84V96C559.532 99.1106 558.457 100.455 554.658 101C553.908 101.108 553.051 101.184 552.076 101.237C551.458 101.27 550.792 101.294 550.076 101.31V101.18C549.913 101.157 549.752 101.133 549.592 101.109C549.591 101.109 549.59 101.109 549.589 101.109C549.348 101.073 549.113 101.037 548.881 101C548.461 100.933 548.055 100.864 547.663 100.793C538.953 99.2161 536.917 96.5025 533.696 87.74L502.336 2.62H496.456L466.636 78.08C460.892 92.8496 455.95 98.4018 447.112 101C446.902 101.062 446.69 101.122 446.476 101.18V103H479.236V101.18C478.885 101.122 478.541 101.062 478.205 101C466.371 98.8085 464.29 93.8644 470.416 77.8L475.176 65.62H508.216L516.616 89.7C519.221 96.9933 517.706 100.046 506.775 101C505.956 101.071 505.083 101.131 504.156 101.18V103H582.492ZM476.156 62.82H507.236L492.676 21.52H492.116L476.156 62.82ZM492.323 26.5333L479.073 60.82H504.41L492.323 26.5333ZM677.326 95.86C676.691 96.5141 676.025 97.1443 675.326 97.745C670.94 101.516 665.29 104.12 658.286 104.12C640.926 104.12 630.566 89.98 630.566 71.64C630.566 52.46 643.586 37.34 662.766 37.34C668.31 37.34 671.853 38.2929 675.046 39.7271C675.723 40.0312 676.385 40.357 677.046 40.7V12.28C677.046 8.1498 675.992 6.02228 669.311 5.34867C668.307 5.24739 667.175 5.17898 665.901 5.14157C665.882 5.14104 665.864 5.14051 665.846 5.13999V3.45999L691.746 2.62V95.86C691.746 98.4622 692.907 100.29 696.782 101.115C698.112 101.398 699.762 101.562 701.794 101.599C701.805 101.6 701.815 101.6 701.826 101.6V103L677.326 103.56V95.86ZM675.046 37.5485C671.831 36.2118 668.168 35.34 662.766 35.34C642.318 35.34 628.566 51.5263 628.566 71.64C628.566 81.1691 631.257 89.7663 636.367 96.0227C641.51 102.319 649.01 106.12 658.286 106.12C665.16 106.12 670.826 103.782 675.326 100.322V103.56C675.326 104.098 675.543 104.614 675.928 104.99C676.313 105.367 676.834 105.572 677.372 105.559L701.872 104.999C702.958 104.975 703.826 104.087 703.826 103V101.6C703.826 100.509 702.952 99.6194 701.861 99.6003C697.947 99.5316 695.906 98.9715 694.876 98.3083C694.411 98.0089 694.164 97.6957 694.012 97.3702C693.85 97.0206 693.746 96.5431 693.746 95.86V2.62C693.746 2.07832 693.526 1.55981 693.137 1.18304C692.748 0.80628 692.223 0.603488 691.681 0.621047L665.781 1.46105C664.702 1.49603 663.846 2.38066 663.846 3.45999V5.13999C663.846 6.22231 664.707 7.10826 665.789 7.13917C670.712 7.27983 672.919 7.89502 673.938 8.6428C674.687 9.19199 675.046 10.0113 675.046 12.28V37.5485ZM652.954 89.2877C655.767 93.6882 659.823 96.24 665.146 96.24C669.635 96.24 672.539 94.6786 675.046 92.1244V47.7916C673.721 46.0247 672.281 44.6451 670.592 43.6781C668.76 42.6289 666.52 42 663.606 42C659.214 42 655.527 44.4876 652.833 49.4428C650.109 54.4527 648.526 61.8202 648.526 70.94C648.526 78.3991 650.091 84.8105 652.954 89.2877ZM677.046 47.14C673.966 42.8 670.046 40 663.606 40C652.966 40 646.526 52.32 646.526 70.94C646.526 86.34 652.966 98.24 665.146 98.24C670.606 98.24 674.106 96.14 677.046 92.92V47.14ZM734.088 105C732.984 105 732.088 104.105 732.088 103V101.18C732.088 100.101 732.944 99.2166 734.023 99.1811C740.349 98.9725 743.774 98.097 745.602 96.887C746.455 96.3226 746.959 95.6853 747.273 94.9553C747.602 94.1906 747.768 93.2187 747.768 91.94V16.34C747.768 13.9416 747.177 12.4991 745.594 11.4397C743.763 10.2147 740.336 9.30704 734.023 9.0989C732.944 9.06335 732.088 8.17891 732.088 7.09999V5.41999C732.088 4.31542 732.984 3.41999 734.088 3.41999H781.688C782.793 3.41999 783.688 4.31542 783.688 5.41999V7.09999C783.688 8.17891 782.833 9.06335 781.754 9.0989C775.441 9.30704 772.014 10.2147 770.183 11.4397C768.6 12.4991 768.008 13.9416 768.008 16.34V91.94C768.008 93.2187 768.175 94.1906 768.504 94.9553C768.818 95.6853 769.321 96.3226 770.174 96.887C772.003 98.097 775.428 98.9725 781.754 99.1811C782.833 99.2166 783.688 100.101 783.688 101.18V103C783.688 104.105 782.793 105 781.688 105H734.088ZM781.688 101.18C780.533 101.142 779.457 101.082 778.458 101C768.439 100.179 766.008 97.1592 766.008 91.94V16.34C766.008 11.4925 768.211 8.42841 777.067 7.41999C778.441 7.26344 779.976 7.15643 781.688 7.09999V5.41999H734.088V7.09999C735.8 7.15643 737.336 7.26344 738.71 7.41999C747.565 8.42841 749.768 11.4925 749.768 16.34V91.94C749.768 97.1592 747.338 100.179 737.319 101C736.319 101.082 735.244 101.142 734.088 101.18V103H781.688V101.18ZM832.077 105C830.973 105 830.077 104.105 830.077 103V101.32C830.077 100.232 830.947 99.3441 832.034 99.3205C833.611 99.2862 834.812 99.2013 835.734 99.0475C836.665 98.8924 837.18 98.6874 837.471 98.5001C837.814 98.2795 838.197 97.8949 838.197 96V60.3C838.197 55.3858 837.431 52.0332 836.008 49.9474C834.695 48.0234 832.626 46.9 829.137 46.9C824.423 46.9 820.516 50.4085 816.857 57.1617V96C816.857 98.0905 817.188 98.422 817.392 98.5731C817.577 98.7095 817.968 98.9006 818.812 99.0515C819.649 99.2012 820.778 99.2862 822.322 99.3205C823.409 99.3447 824.277 100.233 824.277 101.32V103C824.277 104.105 823.382 105 822.277 105H790.217C789.113 105 788.217 104.105 788.217 103V101.32C788.217 100.229 789.092 99.3394 790.182 99.3203C792.151 99.2858 793.678 99.1999 794.868 99.0385C796.073 98.8751 796.8 98.65 797.244 98.4149C797.628 98.2118 797.792 98.0089 797.903 97.762C798.044 97.4487 798.157 96.9249 798.157 96V47.84C798.157 46.0401 797.746 45.0414 796.919 44.3703C795.964 43.5948 794.044 42.9074 790.182 42.8397C789.092 42.8205 788.217 41.9309 788.217 40.84V39.16C788.217 38.0867 789.065 37.2048 790.137 37.1616L814.497 36.1816C815.041 36.1597 815.57 36.3605 815.963 36.7376C816.356 37.1148 816.577 37.6356 816.577 38.18V46.9733C822.392 39.7977 829.537 35.76 837.957 35.76C842.942 35.76 847.261 37.1248 850.522 39.9608C852.791 41.9339 854.447 44.5311 855.474 47.6545C861.551 40.3563 869.605 35.76 877.997 35.76C883.818 35.76 888.659 37.5896 892.013 41.4107C895.33 45.1903 896.938 50.631 896.938 57.36V96C896.938 96.939 897.045 97.469 897.183 97.7864C897.289 98.0309 897.442 98.224 897.807 98.4195C898.237 98.6499 898.954 98.8747 900.166 99.0383C901.363 99.1998 902.907 99.2857 904.912 99.3203C906.003 99.3391 906.877 100.229 906.877 101.32V103C906.877 104.105 905.982 105 904.877 105H872.677C871.573 105 870.677 104.105 870.677 103V101.32C870.677 100.232 871.547 99.3441 872.634 99.3205C874.213 99.2861 875.371 99.201 876.23 99.0504C877.098 98.8982 877.504 98.7046 877.698 98.5639C877.908 98.4114 878.237 98.0891 878.237 96V60.3C878.237 55.3725 877.503 52.0175 876.108 49.932C874.829 48.0204 872.804 46.9 869.317 46.9C865.772 46.9 860.739 49.8692 856.897 55.9672V96C856.897 96.9349 857.004 97.4844 857.143 97.8213C857.255 98.0933 857.406 98.2786 857.709 98.4558C858.071 98.6674 858.685 98.883 859.744 99.0427C860.79 99.2005 862.141 99.286 863.897 99.3204C864.986 99.3417 865.857 100.231 865.857 101.32V103C865.857 104.105 864.962 105 863.857 105H832.077ZM854.897 55.4C858.957 48.68 864.697 44.9 869.317 44.9C877.297 44.9 880.237 50.22 880.237 60.3V96C880.237 99.1106 879.623 100.455 876.688 101C875.66 101.191 874.348 101.284 872.677 101.32V103H904.877V101.32C902.771 101.284 901.089 101.191 899.752 101C895.936 100.455 894.938 99.1106 894.938 96V57.36C894.938 44.48 888.777 37.76 877.997 37.76C869.949 37.76 862.017 42.4234 856.116 50.0481C855.551 50.7787 855.004 51.5365 854.477 52.32C854.351 51.3645 854.177 50.4541 853.956 49.5895C851.977 41.8391 846.27 37.76 837.957 37.76C830.121 37.76 823.36 41.5706 817.755 48.7022C817.357 49.209 816.964 49.7326 816.577 50.2727C815.892 51.23 815.226 52.2394 814.577 53.3V38.18L790.217 39.16V40.84C790.24 40.8404 790.263 40.8408 790.285 40.8412C791.366 40.8622 792.336 40.9298 793.204 41.0415C798.704 41.7484 800.157 44.2232 800.157 47.84V96C800.157 99.1106 799.082 100.455 795.283 101C793.952 101.191 792.287 101.284 790.217 101.32V103H822.277V101.32C820.643 101.284 819.358 101.191 818.35 101C815.472 100.455 814.857 99.1106 814.857 96V56.66C815.194 56.0242 815.536 55.4084 815.885 54.814C815.988 54.6373 816.092 54.4625 816.197 54.2896C817.179 52.6679 818.209 51.2167 819.302 49.9679C822.102 46.7695 825.308 44.9 829.137 44.9C837.117 44.9 840.197 50.22 840.197 60.3V96C840.197 99.1106 839.276 100.455 836.182 101C835.098 101.191 833.748 101.284 832.077 101.32V103H863.857V101.32C862.006 101.284 860.512 101.191 859.314 101C855.896 100.455 854.897 99.1106 854.897 96V55.4ZM906.239 131.74C905.135 131.74 904.239 130.845 904.239 129.74V128.06C904.239 126.969 905.114 126.079 906.205 126.06C908.216 126.026 909.765 125.948 910.967 125.796C912.186 125.641 912.9 125.426 913.326 125.203C913.681 125.018 913.826 124.835 913.931 124.592C914.07 124.269 914.179 123.722 914.179 122.74V47.84C914.179 46.0401 913.768 45.0414 912.941 44.3703C911.986 43.5948 910.065 42.9074 906.204 42.8397C905.113 42.8205 904.239 41.9309 904.239 40.84V39.16C904.239 38.0867 905.086 37.2048 906.159 37.1616L930.519 36.1816C931.063 36.1597 931.592 36.3605 931.985 36.7376C932.377 37.1148 932.599 37.6356 932.599 38.18V42.882C937.976 38.4198 944.278 35.34 951.879 35.34C960.633 35.34 967.593 39.0696 972.308 45.3434C976.978 51.5577 979.359 60.1391 979.359 69.82C979.359 79.857 976.414 88.9113 970.934 95.4945C965.426 102.111 957.443 106.12 947.679 106.12C941.694 106.12 937.212 105.132 932.879 103.246V122.74C932.879 123.648 933.023 124.1 933.175 124.352C933.302 124.564 933.555 124.837 934.259 125.109C935.004 125.397 936.122 125.629 937.802 125.789C939.464 125.947 941.56 126.025 944.206 126.06C945.3 126.075 946.179 126.966 946.179 128.06V129.74C946.179 130.845 945.284 131.74 944.179 131.74H906.239ZM930.879 100.06C931.549 100.413 932.214 100.745 932.879 101.053C937.224 103.067 941.609 104.12 947.679 104.12C966.019 104.12 977.359 89.14 977.359 69.82C977.359 51.06 968.119 37.34 951.879 37.34C944.289 37.34 938.026 40.6574 932.599 45.5232C931.92 46.1324 931.253 46.7658 930.599 47.42V38.18L906.239 39.16V40.84C906.262 40.8404 906.284 40.8408 906.307 40.8412C907.388 40.8622 908.357 40.9298 909.226 41.0415C914.726 41.7484 916.179 44.2232 916.179 47.84V122.74C916.179 125.911 915.207 127.214 911.516 127.74C910.155 127.934 908.426 128.022 906.239 128.06V129.74H944.179V128.06C941.314 128.022 939.028 127.934 937.216 127.74C932.3 127.214 930.879 125.911 930.879 122.74V100.06ZM937.968 97.3835C940.017 98.8029 942.467 99.46 945.299 99.46C947.65 99.46 949.627 98.8851 951.298 97.8035C952.979 96.7152 954.459 95.0435 955.69 92.6922C958.18 87.9365 959.539 80.6206 959.539 70.66C959.539 63.3055 958.171 56.7807 955.609 52.1718C953.081 47.6248 949.501 45.08 944.879 45.08C940.514 45.08 936.804 47.014 932.879 50.9015V90.4438C934.223 93.8119 935.984 96.0084 937.968 97.3835ZM930.879 90.82C933.819 98.52 938.999 101.46 945.299 101.46C956.079 101.46 961.539 90.82 961.539 70.66C961.539 55.54 955.939 43.08 944.879 43.08C939.559 43.08 935.219 45.6 930.879 50.08V90.82ZM1053.82 70.38C1053.82 91.5046 1038.09 106.12 1019.2 106.12C1009.35 106.12 1000.64 102.656 994.382 96.4581C988.123 90.2553 984.445 81.4321 984.445 70.94C984.445 49.9443 1000.19 35.34 1019.2 35.34C1038.77 35.34 1053.82 49.3728 1053.82 70.38ZM1008.96 93.2317C1011.53 97.5777 1015.13 99.46 1019.76 99.46C1022.06 99.46 1023.96 98.9669 1025.55 98.0068C1027.14 97.0464 1028.55 95.5414 1029.72 93.3159C1032.11 88.7894 1033.44 81.4937 1033.44 70.66C1033.44 59.8638 1031.88 52.6295 1029.24 48.1546C1026.71 43.854 1023.14 42 1018.5 42C1016.17 42 1014.23 42.4888 1012.62 43.4409C1011.01 44.3918 1009.6 45.8806 1008.42 48.0841C1006.02 52.5702 1004.68 59.8241 1004.68 70.66C1004.68 81.4493 1006.29 88.7199 1008.96 93.2317ZM1059.28 105C1058.18 105 1057.28 104.105 1057.28 103V101.32C1057.28 100.229 1058.15 99.3394 1059.24 99.3203C1061.21 99.2858 1062.74 99.1999 1063.93 99.0385C1065.14 98.8751 1065.86 98.65 1066.31 98.4149C1066.69 98.2118 1066.85 98.0089 1066.97 97.762C1067.11 97.4487 1067.22 96.9249 1067.22 96V47.84C1067.22 46.0401 1066.81 45.0414 1065.98 44.3703C1065.03 43.5948 1063.11 42.9074 1059.24 42.8397C1058.15 42.8205 1057.28 41.9309 1057.28 40.84V39.16C1057.28 38.0867 1058.13 37.2048 1059.2 37.1616L1083.56 36.1816C1084.1 36.1597 1084.63 36.3605 1085.03 36.7376C1085.42 37.1148 1085.64 37.6356 1085.64 38.18V45.5185C1090.3 39.4494 1096.17 35.62 1102.54 35.62C1106.81 35.62 1110.17 36.9527 1112.45 39.2817C1112.76 39.5965 1113.05 39.9258 1113.31 40.2676C1113.57 40.0108 1113.9 39.8218 1114.27 39.7337L1125.75 37.0179V20.82C1125.75 19.9779 1126.28 19.2259 1127.07 18.9394L1141.77 13.6194C1142.38 13.3975 1143.06 13.4883 1143.6 13.8627C1144.13 14.2371 1144.45 14.8481 1144.45 15.5V37.02H1162.33C1163.43 37.02 1164.33 37.9154 1164.33 39.02V43.36C1164.33 44.4646 1163.43 45.36 1162.33 45.36H1144.45V87.04C1144.45 91.1496 1145.05 93.5198 1145.99 94.8448C1146.8 95.9902 1148.09 96.66 1150.57 96.66C1153.56 96.66 1157.09 94.6234 1160.58 88.3119C1160.85 87.8226 1161.31 87.469 1161.86 87.3367C1162.4 87.2045 1162.97 87.3057 1163.44 87.6159L1165.12 88.7359C1165.95 89.2928 1166.25 90.3827 1165.8 91.2834C1163.47 96.0199 1160.63 99.8125 1157.09 102.422C1153.53 105.053 1149.36 106.4 1144.55 106.4C1138.75 106.4 1133.93 104.871 1130.59 101.283C1127.28 97.7226 1125.75 92.4846 1125.75 85.78V45.5H1115.55C1115.68 46.2689 1115.74 47.0526 1115.74 47.84C1115.74 50.9414 1114.71 53.7249 1112.82 55.7508C1110.92 57.7869 1108.24 58.94 1105.2 58.94C1098.94 58.94 1094.38 54.4258 1094.38 48.26C1094.38 47.7836 1094.42 47.2785 1094.48 46.7699C1091.5 48.173 1088.88 51.1688 1085.92 56.0914V96C1085.92 96.8607 1086.06 97.2991 1086.21 97.5463C1086.33 97.7579 1086.57 98.0189 1087.21 98.2828C1088.66 98.8858 1091.31 99.1784 1096.16 99.3209C1097.24 99.3527 1098.1 100.238 1098.1 101.32V103C1098.1 104.105 1097.2 105 1096.1 105H1059.28ZM1083.92 55.54C1084.27 54.9401 1084.63 54.3617 1084.98 53.8051C1085.1 53.6132 1085.22 53.424 1085.34 53.2373C1085.49 53.0093 1085.64 52.7851 1085.79 52.5648C1088.61 48.3681 1091.44 45.592 1094.96 44.43C1095.68 44.1914 1096.43 44.0208 1097.22 43.92C1097 44.4951 1096.79 45.2548 1096.63 46.0474C1096.48 46.7983 1096.38 47.5789 1096.38 48.26C1096.38 53.3 1100.02 56.94 1105.2 56.94C1110.24 56.94 1113.74 53.16 1113.74 47.84C1113.74 46.8607 1113.63 45.904 1113.4 44.9932C1113.27 44.4795 1113.1 43.9803 1112.9 43.5C1112.84 43.3733 1112.79 43.2479 1112.73 43.1239C1111.19 39.9046 1107.87 37.62 1102.54 37.62C1096.33 37.62 1090.32 41.8627 1085.64 48.9631C1085.1 49.7751 1084.59 50.6244 1084.09 51.5091C1083.94 51.7762 1083.79 52.0465 1083.64 52.32V38.18L1059.28 39.16V40.84C1059.3 40.8404 1059.33 40.8408 1059.35 40.8412C1060.43 40.8622 1061.4 40.9298 1062.27 41.0415C1067.77 41.7484 1069.22 44.2232 1069.22 47.84V96C1069.22 99.1106 1068.14 100.455 1064.35 101C1063.01 101.191 1061.35 101.284 1059.28 101.32V103H1096.1V101.32C1093.89 101.255 1092.05 101.16 1090.53 101C1085.49 100.47 1083.92 99.2261 1083.92 96V55.54ZM1127.75 43.5V85.78C1127.75 98.66 1133.63 104.4 1144.55 104.4C1153.37 104.4 1159.53 99.5 1164.01 90.4L1162.33 89.28C1161.99 89.887 1161.65 90.4618 1161.31 91.0052C1157.94 96.3527 1154.25 98.66 1150.57 98.66C1144.83 98.66 1142.45 95.44 1142.45 87.04V43.36H1162.33V39.02H1142.45V15.5L1127.75 20.82V38.5997L1114.73 41.68V43.5H1127.75ZM312.997 70.38C312.997 90.4 298.157 104.12 280.377 104.12C261.617 104.12 247.617 90.96 247.617 70.94C247.617 51.06 262.457 37.34 280.377 37.34C298.857 37.34 312.997 50.5 312.997 70.38ZM263.857 70.66C263.857 92.5 270.297 101.46 280.937 101.46C291.297 101.46 296.617 92.5 296.617 70.66C296.617 48.82 290.317 40 279.677 40C269.177 40 263.857 48.82 263.857 70.66ZM1051.82 70.38C1051.82 90.4 1036.98 104.12 1019.2 104.12C1000.44 104.12 986.445 90.96 986.445 70.94C986.445 51.06 1001.28 37.34 1019.2 37.34C1037.68 37.34 1051.82 50.5 1051.82 70.38ZM1002.68 70.66C1002.68 92.5 1009.12 101.46 1019.76 101.46C1030.12 101.46 1035.44 92.5 1035.44 70.66C1035.44 48.82 1029.15 40 1018.5 40C1008 40 1002.68 48.82 1002.68 70.66Z" fill="white"/>
</svg>
