<svg width="48" height="48" viewBox="0 0 48 48" fill="none" xmlns="http://www.w3.org/2000/svg">
<path d="M27.972 8C27.849 6.89998 27.3249 5.88387 26.4999 5.14594C25.6749 4.40801 24.6069 4.00003 23.5 4H16.5C15.3931 4.00003 14.3251 4.40801 13.5001 5.14594C12.6751 5.88387 12.151 6.89998 12.028 8H8.5C7.30653 8 6.16193 8.47411 5.31802 9.31802C4.47411 10.1619 4 11.3065 4 12.5V39.5C4 40.6935 4.47411 41.8381 5.31802 42.682C6.16193 43.5259 7.30653 44 8.5 44H25.62C24.7626 43.1074 24.0366 42.0973 23.464 41H8.5C8.10218 41 7.72064 40.842 7.43934 40.5607C7.15804 40.2794 7 39.8978 7 39.5V12.5C7 12.1022 7.15804 11.7206 7.43934 11.4393C7.72064 11.158 8.10218 11 8.5 11H12.758C13.566 12.206 14.94 13 16.5 13H23.5C25.06 13 26.434 12.206 27.242 11H31.5C31.8978 11 32.2794 11.158 32.5607 11.4393C32.842 11.7206 33 12.1022 33 12.5V22.152C33.9923 21.9992 34.9989 21.961 36 22.038V12.5C36 11.3065 35.5259 10.1619 34.682 9.31802C33.8381 8.47411 32.6935 8 31.5 8H27.972ZM27.99 8.192L28 8.5C28 8.396 27.996 8.294 27.99 8.192ZM16.5 7H23.5C23.8978 7 24.2794 7.15804 24.5607 7.43934C24.842 7.72064 25 8.10218 25 8.5C25 8.89782 24.842 9.27936 24.5607 9.56066C24.2794 9.84196 23.8978 10 23.5 10H16.5C16.1022 10 15.7206 9.84196 15.4393 9.56066C15.158 9.27936 15 8.89782 15 8.5C15 8.10218 15.158 7.72064 15.4393 7.43934C15.7206 7.15804 16.1022 7 16.5 7ZM23.914 28.208C24.9884 26.4594 26.4594 24.9884 28.208 23.914L30.06 22.06C30.2074 21.9227 30.3256 21.7571 30.4076 21.5731C30.4895 21.3891 30.5336 21.1905 30.5372 20.989C30.5407 20.7876 30.5037 20.5876 30.4282 20.4008C30.3528 20.214 30.2405 20.0444 30.0981 19.9019C29.9556 19.7595 29.786 19.6472 29.5992 19.5718C29.4124 19.4963 29.2124 19.4593 29.011 19.4628C28.8095 19.4664 28.6109 19.5105 28.4269 19.5924C28.2429 19.6744 28.0773 19.7926 27.94 19.94L18 29.88L14.06 25.94C13.7757 25.675 13.3996 25.5308 13.011 25.5376C12.6224 25.5445 12.2516 25.7019 11.9768 25.9768C11.7019 26.2516 11.5445 26.6224 11.5377 27.011C11.5308 27.3996 11.675 27.7757 11.94 28.06L16.94 33.06C17.2213 33.3409 17.6025 33.4987 18 33.4987C18.3975 33.4987 18.7787 33.3409 19.06 33.06L23.914 28.208ZM46 35C46 32.0826 44.8411 29.2847 42.7782 27.2218C40.7153 25.1589 37.9174 24 35 24C32.0826 24 29.2847 25.1589 27.2218 27.2218C25.1589 29.2847 24 32.0826 24 35C24 37.9174 25.1589 40.7153 27.2218 42.7782C29.2847 44.8411 32.0826 46 35 46C37.9174 46 40.7153 44.8411 42.7782 42.7782C44.8411 40.7153 46 37.9174 46 35ZM36 36L36.002 41.006C36.002 41.2712 35.8966 41.5256 35.7091 41.7131C35.5216 41.9006 35.2672 42.006 35.002 42.006C34.7368 42.006 34.4824 41.9006 34.2949 41.7131C34.1074 41.5256 34.002 41.2712 34.002 41.006V36H28.992C28.7268 36 28.4724 35.8946 28.2849 35.7071C28.0974 35.5196 27.992 35.2652 27.992 35C27.992 34.7348 28.0974 34.4804 28.2849 34.2929C28.4724 34.1054 28.7268 34 28.992 34H34V29C34 28.7348 34.1054 28.4804 34.2929 28.2929C34.4804 28.1054 34.7348 28 35 28C35.2652 28 35.5196 28.1054 35.7071 28.2929C35.8946 28.4804 36 28.7348 36 29V34H40.994C41.2592 34 41.5136 34.1054 41.7011 34.2929C41.8886 34.4804 41.994 34.7348 41.994 35C41.994 35.2652 41.8886 35.5196 41.7011 35.7071C41.5136 35.8946 41.2592 36 40.994 36H36Z" fill="currentColor"/>
</svg>
