<svg width="48" height="48" viewBox="0 0 48 48" fill="none" xmlns="http://www.w3.org/2000/svg">
<path d="M7.2 22.8C7.19984 26.7298 8.68283 30.5148 11.3525 33.3985C14.0222 36.2822 17.6819 38.0521 21.6 38.3544V40.7616C18.15 40.5307 14.8395 39.3111 12.0644 37.2485C9.28924 35.1859 7.1669 32.3677 5.95113 29.1308C4.73537 25.8939 4.47763 22.3753 5.20874 18.9958C5.93986 15.6162 7.62888 12.5188 10.0738 10.0738C12.5188 7.62888 15.6162 5.93986 18.9958 5.20874C22.3753 4.47763 25.8939 4.73537 29.1308 5.95113C32.3677 7.1669 35.1859 9.28924 37.2485 12.0644C39.3111 14.8395 40.5307 18.15 40.7616 21.6C39.9252 21.6063 39.1049 21.8311 38.3821 22.2521C37.6593 22.673 37.059 23.2756 36.6408 24H25.2C24.2452 24 23.3295 23.6207 22.6544 22.9456C21.9793 22.2705 21.6 21.3548 21.6 20.4V7.2456C17.6819 7.54789 14.0222 9.31779 11.3525 12.2015C8.68283 15.0852 7.19984 18.8702 7.2 22.8V22.8ZM38.3544 21.6C38.0677 17.8883 36.4633 14.4015 33.8309 11.7691C31.1985 9.13672 27.7117 7.53232 24 7.2456V20.4C24 20.7183 24.1264 21.0235 24.3515 21.2485C24.5765 21.4736 24.8817 21.6 25.2 21.6H38.3544ZM38.4 26.4C38.4 25.7635 38.6529 25.153 39.1029 24.7029C39.553 24.2529 40.1635 24 40.8 24C41.4365 24 42.047 24.2529 42.4971 24.7029C42.9471 25.153 43.2 25.7635 43.2 26.4V43.2C43.2 43.8365 42.9471 44.447 42.4971 44.8971C42.047 45.3471 41.4365 45.6 40.8 45.6C40.1635 45.6 39.553 45.3471 39.1029 44.8971C38.6529 44.447 38.4 43.8365 38.4 43.2V26.4ZM24 36C24 35.3635 24.2529 34.753 24.7029 34.3029C25.153 33.8529 25.7635 33.6 26.4 33.6C27.0365 33.6 27.647 33.8529 28.0971 34.3029C28.5471 34.753 28.8 35.3635 28.8 36V43.2C28.8 43.8365 28.5471 44.447 28.0971 44.8971C27.647 45.3471 27.0365 45.6 26.4 45.6C25.7635 45.6 25.153 45.3471 24.7029 44.8971C24.2529 44.447 24 43.8365 24 43.2V36ZM31.2 31.2C31.2 30.5635 31.4529 29.953 31.9029 29.5029C32.353 29.0529 32.9635 28.8 33.6 28.8C34.2365 28.8 34.847 29.0529 35.2971 29.5029C35.7471 29.953 36 30.5635 36 31.2V43.2C36 43.8365 35.7471 44.447 35.2971 44.8971C34.847 45.3471 34.2365 45.6 33.6 45.6C32.9635 45.6 32.353 45.3471 31.9029 44.8971C31.4529 44.447 31.2 43.8365 31.2 43.2V31.2Z" fill="currentColor"/>
</svg>
