<svg width="48" height="48" viewBox="0 0 48 48" fill="none" xmlns="http://www.w3.org/2000/svg">
<path d="M17.5 4C17.1022 4 16.7206 4.15804 16.4393 4.43934C16.158 4.72064 16 5.10218 16 5.5V10H11.5C11.1022 10 10.7206 10.158 10.4393 10.4393C10.158 10.7206 10 11.1022 10 11.5V21.028L7.08 22.098C6.88502 22.1692 6.70696 22.2802 6.55706 22.4238C6.40717 22.5674 6.28872 22.7405 6.2092 22.9323C6.12968 23.124 6.09083 23.3302 6.09509 23.5378C6.09936 23.7453 6.14666 23.9497 6.234 24.138L10.904 34.176C11.587 33.9506 12.323 33.9412 13.0116 34.1491C13.7002 34.357 14.3079 34.7722 14.752 35.338L9.644 24.354L22.818 19.53C23.5858 19.2488 24.4279 19.2452 25.198 19.52L38.748 24.356L33.504 35.046C33.9808 34.5609 34.5888 34.2253 35.2534 34.0804C35.918 33.9354 36.6105 33.9874 37.246 34.23L42.182 24.168C42.2752 23.9783 42.3272 23.7711 42.3347 23.5599C42.3422 23.3487 42.305 23.1382 42.2255 22.9424C42.146 22.7466 42.026 22.5698 41.8734 22.4236C41.7208 22.2774 41.539 22.1651 41.34 22.094L38 20.902V11.5C38 11.1022 37.842 10.7206 37.5607 10.4393C37.2794 10.158 36.8978 10 36.5 10H32V5.5C32 5.10218 31.842 4.72064 31.5607 4.43934C31.2794 4.15804 30.8978 4 30.5 4H17.5ZM29 10H19V7H29V10ZM35 13V19.832L26.206 16.694C24.7756 16.1841 23.2118 16.1912 21.786 16.714L13 19.928V13H35ZM37.454 37.128L37.448 37.108C37.3628 36.7941 37.1779 36.5163 36.9211 36.3167C36.6643 36.117 36.3495 36.0063 36.0243 36.0011C35.6991 35.9959 35.3809 36.0965 35.1179 36.2879C34.8549 36.4793 34.6612 36.751 34.566 37.062V37.066L34.558 37.084L34.518 37.2C34.2644 37.8788 33.9163 38.5184 33.484 39.1C32.71 40.13 31.606 41 30 41C28.394 41 27.288 40.13 26.514 39.1C26.0569 38.4846 25.6942 37.8045 25.438 37.082L25.432 37.064C25.3382 36.7564 25.148 36.4872 24.8894 36.2959C24.6309 36.1047 24.3178 36.0016 23.9963 36.0018C23.6747 36.002 23.3617 36.1056 23.1035 36.2972C22.8452 36.4888 22.6554 36.7583 22.562 37.066V37.068L22.554 37.088C22.4864 37.2848 22.4096 37.4783 22.324 37.668C22.146 38.064 21.87 38.588 21.484 39.1C20.714 40.13 19.612 41 18 41C16.388 41 15.284 40.13 14.512 39.1C14.0569 38.4858 13.6963 37.8069 13.442 37.086L13.436 37.064C13.3415 36.7528 13.1483 36.4807 12.8857 36.2889C12.6231 36.097 12.3052 35.9957 11.98 36.0002C11.6547 36.0047 11.3398 36.1148 11.0826 36.3139C10.8254 36.513 10.6399 36.7903 10.554 37.104L10.548 37.122L10.512 37.23C10.2766 37.8945 9.9363 38.5171 9.504 39.074C8.736 40.054 7.512 41 5.5 41C5.10218 41 4.72064 41.158 4.43934 41.4393C4.15804 41.7206 4 42.1022 4 42.5C4 42.8978 4.15804 43.2794 4.43934 43.5607C4.72064 43.842 5.10218 44 5.5 44C8.648 44 10.674 42.446 11.866 40.926L12 40.748L12.112 40.9C13.216 42.37 15.112 44 18 44C20.888 44 22.784 42.37 23.886 40.9L24 40.744L24.116 40.902C25.22 42.37 27.116 44 30 44C32.884 44 34.78 42.37 35.884 40.9L35.994 40.75C36.036 40.81 36.08 40.866 36.126 40.924C37.316 42.446 39.346 44 42.5 44C42.8978 44 43.2794 43.842 43.5607 43.5607C43.842 43.2794 44 42.8978 44 42.5C44 42.1022 43.842 41.7206 43.5607 41.4393C43.2794 41.158 42.8978 41 42.5 41C40.476 41 39.254 40.054 38.49 39.076C38.0367 38.4901 37.6864 37.8314 37.454 37.128Z" fill="currentColor"/>
</svg>
