<svg width="87" height="134" viewBox="0 0 87 134" fill="none" xmlns="http://www.w3.org/2000/svg">
<path d="M0.193359 133.24H2.35336L13.1534 124.42C21.0734 128.92 33.1334 132.52 43.3934 132.52C74.5334 132.52 86.2334 110.92 86.2334 91.1199C86.2334 67.7199 67.8734 61.4199 50.7734 55.6599C30.0734 48.8199 18.3734 43.0599 18.3734 27.5799C18.3734 13.3599 29.5334 5.43994 41.7734 5.43994C56.3534 5.43994 67.8734 17.3199 77.7734 41.0799H80.2934V0.939941H78.1334L71.6534 8.13993C65.1734 5.07994 55.2734 2.01994 44.6534 2.01994C20.3534 2.01994 2.17336 16.7799 2.17336 40.5399C2.17336 63.7599 20.8934 69.5199 38.8934 75.8199C61.2134 83.5599 72.0134 89.8599 72.0134 105.7C72.0134 117.04 63.1934 128.92 45.5534 128.92C26.2934 128.92 13.5134 112.18 2.71336 88.2399H0.193359V133.24Z" fill="white"/>
</svg>
