<svg width="109" height="29" viewBox="0 0 109 29" fill="none" xmlns="http://www.w3.org/2000/svg">
<path d="M0 28.766H109V0H0V28.766Z" fill="#FEFEFE"/>
<path d="M1.00977 1.00806H81.2493V27.7543H1.00977V1.00806Z" fill="#FCBA12"/>
<path d="M62.1269 21.1546C61.8401 21.1641 61.5546 21.1107 61.2906 20.9982C61.0266 20.8857 60.7904 20.7167 60.5987 20.5032C60.2462 19.9842 60.0718 19.3649 60.1015 18.7384V13.388C60.0565 12.7577 60.2106 12.1292 60.5419 11.5912C60.7449 11.3765 60.9908 11.2068 61.2635 11.0932C61.5363 10.9796 61.8299 10.9246 62.1253 10.9318C62.6085 10.9499 63.0824 11.0697 63.5161 11.2835C63.7622 11.4774 63.9489 11.7366 64.0548 12.0316L64.0676 7.69153H66.65V20.9691H64.054V19.8134L63.9812 19.9061C63.7492 20.22 63.4898 20.5126 63.2059 20.7805C62.9038 21.0325 62.5201 21.1655 62.1269 21.1546ZM63.3642 12.8868C63.2813 12.889 63.2001 12.9107 63.1272 12.9501C63.0543 12.9895 62.9917 13.0456 62.9446 13.1138C62.8639 13.2886 62.8314 13.4818 62.8503 13.6733V18.4418C62.8421 18.6263 62.8936 18.8085 62.9973 18.9614C63.0362 19.0226 63.0906 19.0723 63.1551 19.1055C63.2196 19.1387 63.2918 19.154 63.3642 19.15C63.4623 19.1355 63.5556 19.0985 63.6369 19.0417C63.7182 18.985 63.7852 18.9101 63.8326 18.8231C64.0101 18.4597 64.0797 18.0531 64.0332 17.6513V14.4798C64.0628 14.048 63.9942 13.6152 63.8326 13.2137C63.7988 13.1169 63.7353 13.0332 63.6513 12.9745C63.5672 12.9158 63.4667 12.8852 63.3642 12.8868ZM31.8071 21.1474C31.5333 21.1573 31.2609 21.1036 31.0113 20.9906C30.7617 20.8775 30.5416 20.7083 30.3684 20.496C29.997 19.9801 29.8123 19.3532 29.8449 18.7184V17.9191C29.8253 17.3353 29.9755 16.7584 30.2773 16.2582C30.6147 15.7655 31.0797 15.3738 31.6224 15.1248L31.7168 15.0761C31.8407 15.0087 31.9683 14.9481 32.0988 14.8946C33.1898 14.459 33.5759 14.1049 33.5759 13.5438L33.5655 13.1122C33.5705 12.9451 33.5103 12.7826 33.3976 12.659C33.3471 12.5981 33.2835 12.5494 33.2115 12.5163C33.1396 12.4832 33.0612 12.4667 32.982 12.468C32.8906 12.4673 32.8007 12.4914 32.7219 12.5377C32.6431 12.584 32.5783 12.6508 32.5344 12.731C32.4113 12.9485 32.353 13.1967 32.3666 13.4463V14.2208H30.0087V13.4463C29.9877 13.0694 30.0483 12.6923 30.1862 12.3409C30.3241 11.9894 30.5362 11.6718 30.808 11.4098C31.4331 10.8926 32.2313 10.6321 33.0412 10.6808H33.0524C33.8832 10.6072 34.7104 10.8578 35.3607 11.3802C35.6322 11.6447 35.8407 11.9671 35.9705 12.3232C36.1003 12.6794 36.1481 13.0603 36.1104 13.4375V20.9779H33.6119V20.2002L33.5399 20.2746C33.3222 20.5338 33.0612 20.7534 32.7686 20.9236C32.4698 21.0719 32.1406 21.1485 31.8071 21.1474ZM33.5655 15.9177C33.1999 16.1019 32.874 16.3561 32.6064 16.6658C32.4449 16.9277 32.3684 17.2332 32.3874 17.5402V18.5617C32.3678 18.8421 32.4017 19.1236 32.4873 19.3914C32.5246 19.4514 32.578 19.4999 32.6414 19.5312C32.7048 19.5626 32.7757 19.5756 32.8461 19.5688H32.9013C33.0875 19.5688 33.3425 19.5688 33.4608 19.361C33.5613 19.0759 33.5971 18.772 33.5655 18.4714C33.5655 18.417 33.5655 18.3635 33.5655 18.3115V15.9177ZM58.1257 21.0395H55.5457V14.2376C55.555 13.9299 55.5128 13.6227 55.421 13.3288C55.3846 13.26 55.3311 13.2017 55.2655 13.1597C55.2 13.1176 55.1246 13.0933 55.0469 13.0891H55.0261C54.4898 13.0891 54.3675 13.8548 54.3188 14.6077V21.0259L51.7019 21.0187V11.1924H54.2956V12.2474C54.5235 11.8633 54.8105 11.5175 55.146 11.2227C55.4241 11.0756 55.7366 11.006 56.0508 11.0213C56.3769 10.9974 56.7039 11.0545 57.0026 11.1876C57.3013 11.3206 57.5625 11.5254 57.7628 11.7838C58.0411 12.2875 58.1664 12.8614 58.1233 13.4351V21.0395H58.1257ZM19.881 21.0075H17.1219V9.96627H14.3828V7.70512H22.6689V9.96627H19.8802V21.0091L19.881 21.0075ZM40.926 20.9907H38.3795V7.87456H40.9284V14.7803L42.2624 10.975H45.1119L43.3535 15.8018L45.2621 20.9867H42.3048L40.9276 16.6706V20.9867L40.926 20.9907ZM49.5774 20.9907H47.0333V10.975H49.5766V20.9923L49.5774 20.9907ZM26.1426 20.9795H23.5178V10.9686H26.0115V12.5575C26.3916 11.832 27.0137 11.2625 27.7699 10.9478L28.4893 10.9422L28.4989 13.7836H26.9826C26.6509 13.8004 26.1418 14.3959 26.1418 15.0968V20.9819L26.1426 20.9795ZM71.4289 20.9492C70.5691 21.0159 69.7162 20.7517 69.0447 20.2106C68.7648 19.9086 68.5503 19.5519 68.4147 19.1631C68.2791 18.7743 68.2253 18.3617 68.2566 17.9511V13.9771C68.225 13.5687 68.2788 13.1583 68.4145 12.7719C68.5501 12.3855 68.7648 12.0316 69.0447 11.7327C69.7135 11.1858 70.5675 10.9178 71.4289 10.9846C72.2944 10.9182 73.1525 11.186 73.8267 11.7327C74.1073 12.0314 74.3228 12.3851 74.4594 12.7715C74.596 13.1578 74.6509 13.5684 74.6204 13.9771V17.9519C74.6511 18.3618 74.5964 18.7736 74.4598 19.1613C74.3232 19.549 74.1076 19.9041 73.8267 20.2042C73.1517 20.7499 72.2936 21.017 71.4281 20.9508L71.4289 20.9492ZM71.4289 12.8269C71.3452 12.8201 71.2612 12.834 71.1841 12.8673C71.107 12.9006 71.0393 12.9524 70.9869 13.0179C70.8824 13.2001 70.8356 13.4097 70.8526 13.619V18.3083C70.8353 18.5225 70.882 18.737 70.9869 18.9246C71.1054 19.0409 71.2648 19.1061 71.4309 19.1061C71.597 19.1061 71.7564 19.0409 71.8749 18.9246C71.9806 18.7373 72.0279 18.5227 72.0108 18.3083V13.6198C72.0281 13.4069 71.9778 13.1941 71.8669 13.0115C71.8141 12.9477 71.7466 12.8976 71.6701 12.8657C71.5937 12.8338 71.5106 12.8211 71.4281 12.8285L71.4289 12.8269ZM49.5766 10.2668H47.0333V7.87456H49.5766V10.2668Z" fill="#000105"/>
<path d="M81.249 27.7532H107.995V1.00696H81.249V27.7532Z" fill="#000105"/>
<path d="M90.1977 18.4309C90.3866 18.2698 90.5348 18.0664 90.6303 17.8372C90.7259 17.6081 90.766 17.3597 90.7476 17.1121V15.2738H88.1851V17.7699C88.1853 17.941 88.1176 18.1053 87.9968 18.2265C87.876 18.3478 87.712 18.4161 87.5409 18.4165C87.4571 18.4162 87.3741 18.3992 87.297 18.3663C87.2199 18.3334 87.1501 18.2854 87.0919 18.2252C87.0336 18.1649 86.988 18.0935 86.9578 18.0153C86.9276 17.9372 86.9133 17.8537 86.9159 17.7699V10.6947C86.9137 10.6112 86.9283 10.528 86.9587 10.4502C86.9892 10.3724 87.0348 10.3014 87.093 10.2415C87.1513 10.1816 87.2209 10.1339 87.2978 10.1012C87.3747 10.0685 87.4573 10.0516 87.5409 10.0513C87.712 10.0519 87.8758 10.1203 87.9966 10.2415C88.1173 10.3627 88.1851 10.5268 88.1851 10.6979V13.2068H90.7476V10.6012C90.7476 9.16167 89.8093 7.97314 87.5153 7.97314C85.163 7.97314 84.2734 9.16407 84.2734 10.6028V17.9873C84.2726 18.3232 84.3394 18.6558 84.4699 18.9653C84.6003 19.2748 84.7917 19.5549 85.0327 19.7889C85.2737 20.0228 85.5593 20.2059 85.8725 20.3272C86.1858 20.4484 86.5202 20.5054 86.8559 20.4946H87.6512L90.1977 18.4309Z" fill="#FEFEFE"/>
<path d="M100.327 18.7204V10.6054H98.5547V8.21631H104.971V10.6054H103.19V20.4812H102.431L100.327 18.7204Z" fill="#FEFEFE"/>
<path d="M101.475 20.498L95.2281 15.262L88.7539 20.498H101.475Z" fill="#FCBA12"/>
<path d="M99.2805 17.8413L99.2757 17.8373L95.2298 14.45L91.3477 17.584L93.4314 8.22839H97.0113L99.2797 17.8349L99.2805 17.8413ZM95.2282 10.3137L94.5384 13.8505H95.9163L95.2298 10.3145L95.2282 10.3137Z" fill="#FEFEFE"/>
<path d="M106.238 9.62838C106.087 9.62901 105.94 9.58499 105.815 9.50189C105.689 9.41878 105.592 9.30034 105.533 9.16155C105.475 9.02276 105.46 8.86987 105.489 8.72223C105.518 8.5746 105.59 8.43886 105.696 8.3322C105.802 8.22555 105.937 8.15277 106.085 8.12309C106.232 8.09341 106.385 8.10817 106.524 8.16548C106.663 8.22279 106.782 8.32009 106.866 8.44505C106.95 8.57002 106.995 8.71702 106.995 8.86746C106.994 9.06839 106.914 9.26096 106.773 9.40341C106.631 9.54586 106.439 9.62669 106.238 9.62838ZM106.238 8.24003C106.113 8.2394 105.991 8.27578 105.888 8.34457C105.784 8.41336 105.703 8.51144 105.655 8.62637C105.607 8.74129 105.594 8.86787 105.618 8.99003C105.643 9.1122 105.702 9.22443 105.791 9.31248C105.879 9.40053 105.991 9.46043 106.113 9.48457C106.235 9.50871 106.362 9.496 106.477 9.44805C106.592 9.40011 106.69 9.31909 106.758 9.21529C106.827 9.11149 106.864 8.98959 106.863 8.86507C106.862 8.69983 106.795 8.54175 106.678 8.42506C106.561 8.30837 106.403 8.24246 106.238 8.24163V8.24003ZM106.077 9.30867H105.937V8.41028H106.224C106.449 8.41028 106.558 8.4902 106.558 8.65805C106.56 8.70913 106.542 8.75883 106.508 8.79732C106.475 8.83581 106.428 8.86027 106.377 8.86586C106.501 8.89464 106.515 8.94979 106.53 9.0457V9.06169C106.538 9.14295 106.554 9.22324 106.578 9.30147H106.403L106.395 9.2687C106.385 9.22657 106.376 9.18387 106.371 9.14082V9.10485C106.372 9.04988 106.355 8.99598 106.322 8.95219C106.309 8.93883 106.293 8.92851 106.276 8.92201C106.259 8.91551 106.24 8.91298 106.222 8.91462H106.193H106.077V9.30867Z" fill="#FEFEFE"/>
<path d="M106.238 9.62838C106.087 9.62901 105.94 9.58499 105.815 9.50189C105.689 9.41878 105.592 9.30034 105.533 9.16155C105.475 9.02276 105.46 8.86987 105.489 8.72223C105.518 8.5746 105.59 8.43886 105.696 8.3322C105.802 8.22555 105.937 8.15277 106.085 8.12309C106.232 8.09341 106.385 8.10817 106.524 8.16548C106.663 8.22279 106.782 8.32009 106.866 8.44505C106.95 8.57002 106.995 8.71702 106.995 8.86746C106.994 9.06839 106.914 9.26096 106.773 9.40341C106.631 9.54586 106.439 9.62669 106.238 9.62838ZM106.238 8.24003C106.113 8.2394 105.991 8.27578 105.888 8.34457C105.784 8.41336 105.703 8.51144 105.655 8.62637C105.607 8.74129 105.594 8.86787 105.618 8.99003C105.643 9.1122 105.702 9.22443 105.791 9.31248C105.879 9.40053 105.991 9.46043 106.113 9.48457C106.235 9.50871 106.362 9.496 106.477 9.44805C106.592 9.40011 106.69 9.31909 106.758 9.21529C106.827 9.11149 106.864 8.98959 106.863 8.86507C106.862 8.69983 106.795 8.54175 106.678 8.42506C106.561 8.30837 106.403 8.24246 106.238 8.24163V8.24003ZM106.077 9.30867H105.937V8.41028H106.224C106.449 8.41028 106.558 8.4902 106.558 8.65805C106.56 8.70913 106.542 8.75883 106.508 8.79732C106.475 8.83581 106.428 8.86027 106.377 8.86586C106.501 8.89464 106.515 8.94979 106.53 9.0457V9.06169C106.538 9.14295 106.554 9.22324 106.578 9.30147H106.403L106.395 9.2687C106.385 9.22657 106.376 9.18387 106.371 9.14082V9.10485C106.372 9.04988 106.355 8.99598 106.322 8.95219C106.309 8.93883 106.293 8.92851 106.276 8.92201C106.259 8.91551 106.24 8.91298 106.222 8.91462H106.193H106.077V9.30867Z" fill="#FEFEFE"/>
</svg>
