<svg width="190" height="67" viewBox="0 0 190 67" fill="none" xmlns="http://www.w3.org/2000/svg">
<rect x="190" y="4" width="2" height="10" transform="rotate(90 190 4)" fill="white"/>
<rect x="186" y="10" width="2" height="10" transform="rotate(180 186 10)" fill="white"/>
<rect x="170" y="4" width="2" height="10" transform="rotate(90 170 4)" fill="white"/>
<rect x="166" y="10" width="2" height="10" transform="rotate(180 166 10)" fill="white"/>
<rect x="150" y="4" width="2" height="10" transform="rotate(90 150 4)" fill="white"/>
<rect x="146" y="10" width="2" height="10" transform="rotate(180 146 10)" fill="white"/>
<rect x="130" y="4" width="2" height="10" transform="rotate(90 130 4)" fill="white"/>
<rect x="126" y="10" width="2" height="10" transform="rotate(180 126 10)" fill="white"/>
<rect x="110" y="4" width="2" height="10" transform="rotate(90 110 4)" fill="white"/>
<rect x="106" y="10" width="2" height="10" transform="rotate(180 106 10)" fill="white"/>
<rect x="90" y="4" width="2" height="10" transform="rotate(90 90 4)" fill="white"/>
<rect x="86" y="10" width="2" height="10" transform="rotate(180 86 10)" fill="white"/>
<rect x="70" y="4" width="2" height="10" transform="rotate(90 70 4)" fill="white"/>
<rect x="66" y="10" width="2" height="10" transform="rotate(180 66 10)" fill="white"/>
<rect x="50" y="4" width="2" height="10" transform="rotate(90 50 4)" fill="white"/>
<rect x="46" y="10" width="2" height="10" transform="rotate(180 46 10)" fill="white"/>
<rect x="30" y="4" width="2" height="10" transform="rotate(90 30 4)" fill="white"/>
<rect x="26" y="10" width="2" height="10" transform="rotate(180 26 10)" fill="white"/>
<rect x="10" y="4" width="2" height="10" transform="rotate(90 10 4)" fill="white"/>
<rect x="6" y="10" width="2" height="10" transform="rotate(180 6 10)" fill="white"/>
<rect x="190" y="23" width="2" height="10" transform="rotate(90 190 23)" fill="white"/>
<rect x="186" y="29" width="2" height="10" transform="rotate(180 186 29)" fill="white"/>
<rect x="170" y="23" width="2" height="10" transform="rotate(90 170 23)" fill="white"/>
<rect x="166" y="29" width="2" height="10" transform="rotate(180 166 29)" fill="white"/>
<rect x="150" y="23" width="2" height="10" transform="rotate(90 150 23)" fill="white"/>
<rect x="146" y="29" width="2" height="10" transform="rotate(180 146 29)" fill="white"/>
<rect x="130" y="23" width="2" height="10" transform="rotate(90 130 23)" fill="white"/>
<rect x="126" y="29" width="2" height="10" transform="rotate(180 126 29)" fill="white"/>
<rect x="110" y="23" width="2" height="10" transform="rotate(90 110 23)" fill="white"/>
<rect x="106" y="29" width="2" height="10" transform="rotate(180 106 29)" fill="white"/>
<rect x="90" y="23" width="2" height="10" transform="rotate(90 90 23)" fill="white"/>
<rect x="86" y="29" width="2" height="10" transform="rotate(180 86 29)" fill="white"/>
<rect x="70" y="23" width="2" height="10" transform="rotate(90 70 23)" fill="white"/>
<rect x="66" y="29" width="2" height="10" transform="rotate(180 66 29)" fill="white"/>
<rect x="50" y="23" width="2" height="10" transform="rotate(90 50 23)" fill="white"/>
<rect x="46" y="29" width="2" height="10" transform="rotate(180 46 29)" fill="white"/>
<rect x="30" y="23" width="2" height="10" transform="rotate(90 30 23)" fill="white"/>
<rect x="26" y="29" width="2" height="10" transform="rotate(180 26 29)" fill="white"/>
<rect x="10" y="23" width="2" height="10" transform="rotate(90 10 23)" fill="white"/>
<rect x="6" y="29" width="2" height="10" transform="rotate(180 6 29)" fill="white"/>
<rect x="190" y="42" width="2" height="10" transform="rotate(90 190 42)" fill="white"/>
<rect x="186" y="48" width="2" height="10" transform="rotate(180 186 48)" fill="white"/>
<rect x="170" y="42" width="2" height="10" transform="rotate(90 170 42)" fill="white"/>
<rect x="166" y="48" width="2" height="10" transform="rotate(180 166 48)" fill="white"/>
<rect x="150" y="42" width="2" height="10" transform="rotate(90 150 42)" fill="white"/>
<rect x="146" y="48" width="2" height="10" transform="rotate(180 146 48)" fill="white"/>
<rect x="130" y="42" width="2" height="10" transform="rotate(90 130 42)" fill="white"/>
<rect x="126" y="48" width="2" height="10" transform="rotate(180 126 48)" fill="white"/>
<rect x="110" y="42" width="2" height="10" transform="rotate(90 110 42)" fill="white"/>
<rect x="106" y="48" width="2" height="10" transform="rotate(180 106 48)" fill="white"/>
<rect x="90" y="42" width="2" height="10" transform="rotate(90 90 42)" fill="white"/>
<rect x="86" y="48" width="2" height="10" transform="rotate(180 86 48)" fill="white"/>
<rect x="70" y="42" width="2" height="10" transform="rotate(90 70 42)" fill="white"/>
<rect x="66" y="48" width="2" height="10" transform="rotate(180 66 48)" fill="white"/>
<rect x="50" y="42" width="2" height="10" transform="rotate(90 50 42)" fill="white"/>
<rect x="46" y="48" width="2" height="10" transform="rotate(180 46 48)" fill="white"/>
<rect x="30" y="42" width="2" height="10" transform="rotate(90 30 42)" fill="white"/>
<rect x="26" y="48" width="2" height="10" transform="rotate(180 26 48)" fill="white"/>
<rect x="10" y="42" width="2" height="10" transform="rotate(90 10 42)" fill="white"/>
<rect x="6" y="48" width="2" height="10" transform="rotate(180 6 48)" fill="white"/>
<rect x="190" y="61" width="2" height="10" transform="rotate(90 190 61)" fill="white"/>
<rect x="186" y="67" width="2" height="10" transform="rotate(180 186 67)" fill="white"/>
<rect x="170" y="61" width="2" height="10" transform="rotate(90 170 61)" fill="white"/>
<rect x="166" y="67" width="2" height="10" transform="rotate(180 166 67)" fill="white"/>
<rect x="150" y="61" width="2" height="10" transform="rotate(90 150 61)" fill="white"/>
<rect x="146" y="67" width="2" height="10" transform="rotate(180 146 67)" fill="white"/>
<rect x="130" y="61" width="2" height="10" transform="rotate(90 130 61)" fill="white"/>
<rect x="126" y="67" width="2" height="10" transform="rotate(180 126 67)" fill="white"/>
<rect x="110" y="61" width="2" height="10" transform="rotate(90 110 61)" fill="white"/>
<rect x="106" y="67" width="2" height="10" transform="rotate(180 106 67)" fill="white"/>
<rect x="90" y="61" width="2" height="10" transform="rotate(90 90 61)" fill="white"/>
<rect x="86" y="67" width="2" height="10" transform="rotate(180 86 67)" fill="white"/>
<rect x="70" y="61" width="2" height="10" transform="rotate(90 70 61)" fill="white"/>
<rect x="66" y="67" width="2" height="10" transform="rotate(180 66 67)" fill="white"/>
<rect x="50" y="61" width="2" height="10" transform="rotate(90 50 61)" fill="white"/>
<rect x="46" y="67" width="2" height="10" transform="rotate(180 46 67)" fill="white"/>
<rect x="30" y="61" width="2" height="10" transform="rotate(90 30 61)" fill="white"/>
<rect x="26" y="67" width="2" height="10" transform="rotate(180 26 67)" fill="white"/>
<rect x="10" y="61" width="2" height="10" transform="rotate(90 10 61)" fill="white"/>
<rect x="6" y="67" width="2" height="10" transform="rotate(180 6 67)" fill="white"/>
</svg>
