<svg width="90" height="10" viewBox="0 0 90 10" fill="none" xmlns="http://www.w3.org/2000/svg">
<g opacity="0.9">
<rect x="90" y="4" width="2" height="10" transform="rotate(90 90 4)" fill="#C4C4C4"/>
<rect x="86" y="10" width="2" height="10" transform="rotate(180 86 10)" fill="#C4C4C4"/>
<rect x="70" y="4" width="2" height="10" transform="rotate(90 70 4)" fill="#C4C4C4"/>
<rect x="66" y="10" width="2" height="10" transform="rotate(180 66 10)" fill="#C4C4C4"/>
<rect x="50" y="4" width="2" height="10" transform="rotate(90 50 4)" fill="#C4C4C4"/>
<rect x="46" y="10" width="2" height="10" transform="rotate(180 46 10)" fill="#C4C4C4"/>
<rect x="30" y="4" width="2" height="10" transform="rotate(90 30 4)" fill="#C4C4C4"/>
<rect x="26" y="10" width="2" height="10" transform="rotate(180 26 10)" fill="#C4C4C4"/>
<rect x="10" y="4" width="2" height="10" transform="rotate(90 10 4)" fill="#C4C4C4"/>
<rect x="6" y="10" width="2" height="10" transform="rotate(180 6 10)" fill="#C4C4C4"/>
</g>
</svg>
