<svg width="75" height="38" viewBox="0 0 75 38" fill="none" xmlns="http://www.w3.org/2000/svg">
<path d="M1.76 29.576H2.144L4.064 28.008C5.472 28.808 7.616 29.448 9.44 29.448C14.976 29.448 17.056 25.608 17.056 22.088C17.056 17.928 13.792 16.808 10.752 15.784C7.072 14.568 4.992 13.544 4.992 10.792C4.992 8.264 6.976 6.856 9.152 6.856C11.744 6.856 13.792 8.968 15.552 13.192H16V6.056H15.616L14.464 7.336C13.312 6.792 11.552 6.248 9.664 6.248C5.344 6.248 2.112 8.872 2.112 13.096C2.112 17.224 5.44 18.248 8.64 19.368C12.608 20.744 14.528 21.864 14.528 24.68C14.528 26.696 12.96 28.808 9.824 28.808C6.4 28.808 4.128 25.832 2.208 21.576H1.76V29.576ZM31.922 29.544C37.074 29.544 39.89 26.376 41.266 23.24L40.722 22.952C39.314 26.024 36.754 28.328 33.074 28.328C29.202 28.328 25.202 25.32 25.202 17.832C25.202 10.184 28.434 6.76 32.242 6.76C35.666 6.76 37.97 9.224 39.73 13.736H40.146V5.96H39.826L38.418 7.464C36.914 6.696 34.994 6.152 32.658 6.152C26.194 6.152 20.978 11.112 20.978 18.184C20.978 25.096 25.362 29.544 31.922 29.544ZM43.9512 29H54.8313V28.584C51.9192 28.488 51.2472 27.784 51.2472 26.472V9.192C51.2472 7.912 51.9192 7.176 54.8313 7.08V6.696H43.9512V7.08C46.8632 7.176 47.5352 7.912 47.5352 9.192V26.472C47.5352 27.784 46.8632 28.488 43.9512 28.584V29ZM58.1887 29.576H58.5727L60.4927 28.008C61.9007 28.808 64.0447 29.448 65.8687 29.448C71.4047 29.448 73.4848 25.608 73.4848 22.088C73.4848 17.928 70.2207 16.808 67.1807 15.784C63.5007 14.568 61.4207 13.544 61.4207 10.792C61.4207 8.264 63.4047 6.856 65.5807 6.856C68.1727 6.856 70.2207 8.968 71.9808 13.192H72.4287V6.056H72.0448L70.8927 7.336C69.7407 6.792 67.9808 6.248 66.0927 6.248C61.7727 6.248 58.5407 8.872 58.5407 13.096C58.5407 17.224 61.8687 18.248 65.0687 19.368C69.0367 20.744 70.9567 21.864 70.9567 24.68C70.9567 26.696 69.3888 28.808 66.2527 28.808C62.8287 28.808 60.5567 25.832 58.6367 21.576H58.1887V29.576Z" fill="white"/>
</svg>
