<svg width="19" height="19" viewBox="0 0 19 19" fill="none" xmlns="http://www.w3.org/2000/svg">
<path d="M17.2856 4.9088C16.7126 5.16297 16.0967 5.33474 15.4504 5.41197C16.11 5.01649 16.6168 4.39027 16.8553 3.64404C16.2379 4.01027 15.554 4.2762 14.8261 4.41947C14.2432 3.79842 13.4128 3.4104 12.4937 3.4104C10.7289 3.4104 9.29804 4.84111 9.29804 6.60585C9.29804 6.8563 9.32633 7.1002 9.38084 7.3341C6.72502 7.20082 4.37037 5.92863 2.79432 3.99528C2.51924 4.46724 2.36166 5.01616 2.36166 5.6018C2.36166 6.71046 2.92578 7.68855 3.78325 8.26164C3.25947 8.24496 2.76668 8.10125 2.33588 7.86191C2.33557 7.87526 2.33557 7.8886 2.33557 7.90208C2.33557 9.45038 3.43709 10.7419 4.89891 11.0355C4.63079 11.1085 4.34847 11.1476 4.05704 11.1476C3.85113 11.1476 3.65095 11.1275 3.4558 11.0903C3.86246 12.3597 5.04257 13.2837 6.44093 13.3094C5.34728 14.1666 3.96942 14.6774 2.47224 14.6774C2.21431 14.6774 1.95995 14.6622 1.70996 14.6327C3.12413 15.5394 4.80384 16.0685 6.60843 16.0685C12.4862 16.0685 15.7004 11.1992 15.7004 6.97638C15.7004 6.83786 15.6973 6.70004 15.6911 6.56296C16.3155 6.11242 16.8573 5.54963 17.2856 4.9088Z" fill="white"/>
</svg>
