<svg width="19" height="19" viewBox="0 0 19 19" fill="none" xmlns="http://www.w3.org/2000/svg">
<path d="M6.4125 2.19153H12.7125C15.1149 2.19153 17.0625 4.13909 17.0625 6.54153V12.8415C17.0625 15.244 15.1149 17.1915 12.7125 17.1915H6.4125C4.01006 17.1915 2.0625 15.244 2.0625 12.8415V6.54153C2.0625 4.13909 4.01006 2.19153 6.4125 2.19153ZM6.2625 3.69151C4.77133 3.69151 3.5625 4.90035 3.5625 6.39151V12.9915C3.5625 14.4827 4.77133 15.6915 6.2625 15.6915H12.8625C14.3537 15.6915 15.5625 14.4827 15.5625 12.9915V6.39151C15.5625 4.90035 14.3537 3.69151 12.8625 3.69151H6.2625ZM13.5 4.81651C14.0178 4.81651 14.4375 5.23625 14.4375 5.75401C14.4375 6.27178 14.0178 6.69151 13.5 6.69151C12.9822 6.69151 12.5625 6.27178 12.5625 5.75401C12.5625 5.23625 12.9822 4.81651 13.5 4.81651ZM9.5625 5.94151C11.6336 5.94151 13.3125 7.62045 13.3125 9.69151C13.3125 11.7626 11.6336 13.4415 9.5625 13.4415C7.49143 13.4415 5.8125 11.7626 5.8125 9.69151C5.8125 7.62045 7.49143 5.94151 9.5625 5.94151ZM9.5625 7.44151C8.31983 7.44151 7.3125 8.44891 7.3125 9.69151C7.3125 10.9342 8.31983 11.9415 9.5625 11.9415C10.8052 11.9415 11.8125 10.9342 11.8125 9.69151C11.8125 8.44891 10.8052 7.44151 9.5625 7.44151Z" fill="white"/>
</svg>
